<svg height="512pt" viewBox="0 0 512 512" width="512pt" xmlns="http://www.w3.org/2000/svg" xmlns:xlink="http://www.w3.org/1999/xlink"><linearGradient id="a" gradientTransform="matrix(1 0 0 -1 0 -14446)" gradientUnits="userSpaceOnUse" x1="0" x2="512" y1="-14702" y2="-14702"><stop offset="0" stop-color="#00f38d"/><stop offset="1" stop-color="#009eff"/></linearGradient><path d="m512 256c0 141.386719-114.613281 256-256 256s-256-114.613281-256-256 114.613281-256 256-256 256 114.613281 256 256zm0 0" fill="url(#a)"/><g fill="#fff"><path d="m256 56c-110.28125 0-200 89.542969-200 199.609375v.78125c0 110.066406 89.71875 199.609375 200 199.609375s200-89.542969 200-199.609375v-.78125c0-110.066406-89.71875-199.609375-200-199.609375zm170 200.390625c0 93.523437-76.261719 169.609375-170 169.609375s-170-76.085938-170-169.609375v-.78125c0-93.523437 76.261719-169.609375 170-169.609375s170 76.085938 170 169.609375zm0 0"/><path d="m256 157.90625c-53.65625 0-97.308594 43.652344-97.308594 97.3125 0 53.652344 43.652344 97.308594 97.308594 97.308594s97.308594-43.65625 97.308594-97.3125-43.652344-97.308594-97.308594-97.308594zm0 164.617188c-37.113281 0-67.308594-30.195313-67.308594-67.308594 0-37.113282 30.195313-67.308594 67.308594-67.308594s67.308594 30.195312 67.308594 67.308594c0 37.117187-30.195313 67.308594-67.308594 67.308594zm0 0"/></g></svg>